<svg width="73" height="16" viewBox="0 0 73 16" fill="none" xmlns="http://www.w3.org/2000/svg">
<path d="M0.54 0.76H5.78C8.11333 0.76 9.92 1.38 11.2 2.62C12.4933 3.86 13.14 5.60667 13.14 7.86C13.14 10.1267 12.4933 11.8867 11.2 13.14C9.92 14.38 8.11333 15 5.78 15H0.54V0.76ZM5.62 12.9C8.9 12.9 10.54 11.22 10.54 7.86C10.54 4.52667 8.9 2.86 5.62 2.86H3.12V12.9H5.62ZM24.4344 10.08H17.4744C17.5277 11.16 17.7944 11.96 18.2744 12.48C18.7677 12.9867 19.4944 13.24 20.4544 13.24C21.561 13.24 22.5877 12.88 23.5344 12.16L24.2544 13.88C23.7744 14.2667 23.181 14.58 22.4744 14.82C21.781 15.0467 21.0744 15.16 20.3544 15.16C18.701 15.16 17.401 14.6933 16.4544 13.76C15.5077 12.8267 15.0344 11.5467 15.0344 9.92C15.0344 8.89333 15.241 7.98 15.6544 7.18C16.0677 6.38 16.6477 5.76 17.3944 5.32C18.141 4.86667 18.9877 4.64 19.9344 4.64C21.321 4.64 22.4144 5.09333 23.2144 6C24.0277 6.89333 24.4344 8.12667 24.4344 9.7V10.08ZM19.9944 6.44C19.3277 6.44 18.781 6.64 18.3544 7.04C17.941 7.42667 17.6744 7.99333 17.5544 8.74H22.2544C22.1744 7.98 21.941 7.40667 21.5544 7.02C21.181 6.63333 20.661 6.44 19.9944 6.44ZM32.3314 4.64C34.7447 4.64 35.9514 6.02667 35.9514 8.8V15H33.4514V8.92C33.4514 8.12 33.2981 7.54 32.9914 7.18C32.6847 6.80667 32.2114 6.62 31.5714 6.62C30.8114 6.62 30.1981 6.86667 29.7314 7.36C29.2647 7.84 29.0314 8.48 29.0314 9.28V15H26.5514V7.76C26.5514 6.69333 26.4981 5.74 26.3914 4.9H28.7314L28.9114 6.56C29.2581 5.94667 29.7247 5.47333 30.3114 5.14C30.9114 4.80667 31.5847 4.64 32.3314 4.64ZM41.7822 6.78V11.3C41.7822 12.4867 42.3355 13.08 43.4422 13.08C43.7489 13.08 44.0822 13.0267 44.4422 12.92V14.9C44.0022 15.06 43.4689 15.14 42.8422 15.14C41.6955 15.14 40.8155 14.82 40.2022 14.18C39.5889 13.54 39.2822 12.62 39.2822 11.42V6.78H37.3422V4.9H39.2822V2.44L41.7822 1.6V4.9H44.4622V6.78H41.7822Z" fill="#0052FF"/>
<path d="M46.3803 15V0.279999H48.0003V15H46.3803ZM55.0059 15.14C54.1126 15.14 53.3259 14.9333 52.6459 14.52C51.9793 14.0933 51.4593 13.4933 51.0859 12.72C50.7259 11.9333 50.5459 11.0133 50.5459 9.96C50.5459 8.90667 50.7326 7.98667 51.1059 7.2C51.4793 6.41333 51.9993 5.8 52.6659 5.36C53.3459 4.92 54.1259 4.7 55.0059 4.7C55.9259 4.7 56.7059 4.92667 57.3459 5.38C57.9859 5.83333 58.4193 6.48 58.6459 7.32L58.4059 7.48V4.94H60.0059V15H58.4059V12.4L58.6459 12.52C58.4193 13.36 57.9859 14.0067 57.3459 14.46C56.7059 14.9133 55.9259 15.14 55.0059 15.14ZM55.3259 13.8C56.3126 13.8 57.0726 13.4667 57.6059 12.8C58.1393 12.12 58.4059 11.16 58.4059 9.92C58.4059 8.68 58.1326 7.72667 57.5859 7.06C57.0526 6.39333 56.2993 6.06 55.3259 6.06C54.3393 6.06 53.5659 6.40667 53.0059 7.1C52.4593 7.78 52.1859 8.73333 52.1859 9.96C52.1859 11.1867 52.4593 12.1333 53.0059 12.8C53.5659 13.4667 54.3393 13.8 55.3259 13.8ZM63.1381 15V0.279999H64.7581V7.52L64.5381 7.32C64.7648 6.49333 65.1981 5.85333 65.8381 5.4C66.4781 4.93333 67.2515 4.7 68.1581 4.7C69.0515 4.7 69.8315 4.91333 70.4981 5.34C71.1648 5.76667 71.6848 6.36667 72.0581 7.14C72.4448 7.91333 72.6381 8.82667 72.6381 9.88C72.6381 10.9333 72.4448 11.86 72.0581 12.66C71.6848 13.4467 71.1581 14.06 70.4781 14.5C69.8115 14.9267 69.0381 15.14 68.1581 15.14C67.2515 15.14 66.4781 14.9133 65.8381 14.46C65.1981 14.0067 64.7648 13.36 64.5381 12.52L64.7581 12.3V15H63.1381ZM67.8581 13.8C68.8315 13.8 69.5915 13.46 70.1381 12.78C70.6848 12.0867 70.9581 11.12 70.9581 9.88C70.9581 8.66667 70.6848 7.72667 70.1381 7.06C69.5915 6.39333 68.8315 6.06 67.8581 6.06C66.8581 6.06 66.0915 6.4 65.5581 7.08C65.0248 7.74667 64.7581 8.69333 64.7581 9.92C64.7581 11.16 65.0248 12.12 65.5581 12.8C66.0915 13.4667 66.8581 13.8 67.8581 13.8Z" fill="#202020"/>
</svg>
