<svg width="20" height="17" viewBox="0 0 20 17" fill="none" xmlns="http://www.w3.org/2000/svg">
<path d="M4.77051 0.739996L7.43051 2.84C6.17051 4.14666 5.33051 5.38333 4.91051 6.55C4.49051 7.67 4.28051 8.81333 4.28051 9.98L2.60051 8.79H7.71051V16.07H0.500508V10.96C0.500508 9.04666 0.803841 7.27333 1.41051 5.64C2.06384 3.96 3.18384 2.32666 4.77051 0.739996ZM16.5305 0.739996L19.1905 2.84C17.9305 4.14666 17.0905 5.38333 16.6705 6.55C16.2505 7.67 16.0405 8.81333 16.0405 9.98L14.3605 8.79H19.4705V16.07H12.2605V10.96C12.2605 9.04666 12.5638 7.27333 13.1705 5.64C13.8238 3.96 14.9438 2.32666 16.5305 0.739996Z" fill="#0052FF"/>
</svg>
